<svg width="64" height="64" viewBox="0 0 64 64" fill="none" xmlns="http://www.w3.org/2000/svg">
<rect width="64" height="64" fill="#3498CB"/>
<rect x="4" y="4" width="8" height="8" fill="#FFF"/>
<rect x="16" y="4" width="8" height="8" fill="#FFF"/>
<rect x="28" y="4" width="8" height="8" fill="#FFF"/>
<rect x="40" y="4" width="8" height="8" fill="#FFF"/>
<rect x="4" y="16" width="8" height="8" fill="#FFF"/>
<rect x="16" y="16" width="8" height="8" fill="#FFF"/>
<rect x="28" y="16" width="8" height="8"/>
<rect x="40" y="16" width="8" height="8" fill="#FFF"/>
<rect x="4" y="28" width="8" height="8" fill="#FFF"/>
<rect x="16" y="28" width="8" height="8" fill="#FFF"/>
<rect x="28" y="28" width="8" height="8"/>
<rect x="40" y="28" width="8" height="8" fill="#FFF"/>
<rect x="4" y="40" width="8" height="8" fill="#FFF"/>
<rect x="16" y="40" width="8" height="8" fill="#FFF"/>
<rect x="28" y="40" width="8" height="8"/>
<rect x="40" y="40" width="8" height="8" fill="#FFF"/>
</svg> 