<svg width="64" height="64" viewBox="0 0 64 64" fill="none" xmlns="http://www.w3.org/2000/svg">
<rect width="64" height="64" fill="#696969"/>
<rect x="0" y="28" width="64" height="8"/>
<rect x="3" y="30" width="1" height="1" fill="#FFF"/>
<rect x="6" y="30" width="1" height="1" fill="#FFF"/>
<rect x="9" y="30" width="1" height="1" fill="#FFF"/>
<rect x="12" y="30" width="1" height="1" fill="#FFF"/>
<rect x="15" y="30" width="1" height="1" fill="#FFF"/>
<rect x="18" y="30" width="1" height="1" fill="#FFF"/>
<rect x="21" y="30" width="1" height="1" fill="#FFF"/>
<rect x="24" y="30" width="1" height="1" fill="#FFF"/>
<rect x="27" y="30" width="1" height="1" fill="#FFF"/>
<rect x="30" y="30" width="1" height="1" fill="#FFF"/>
<rect x="33" y="30" width="1" height="1" fill="#FFF"/>
<rect x="36" y="30" width="1" height="1" fill="#FFF"/>
<rect x="39" y="30" width="1" height="1" fill="#FFF"/>
<rect x="42" y="30" width="1" height="1" fill="#FFF"/>
<rect x="45" y="30" width="1" height="1" fill="#FFF"/>
<rect x="48" y="30" width="1" height="1" fill="#FFF"/>
<rect x="51" y="30" width="1" height="1" fill="#FFF"/>
<rect x="54" y="30" width="1" height="1" fill="#FFF"/>
<rect x="57" y="30" width="1" height="1" fill="#FFF"/>
<rect x="60" y="30" width="1" height="1" fill="#FFF"/>
<rect x="63" y="30" width="1" height="1" fill="#FFF"/>
</svg> 