<svg width="64" height="64" viewBox="0 0 64 64" fill="none" xmlns="http://www.w3.org/2000/svg">
<rect width="64" height="64" fill="#696969"/>
<rect x="28" y="0" width="8" height="64"/>
<rect x="30" y="3" width="1" height="1" fill="#FFF"/>
<rect x="30" y="6" width="1" height="1" fill="#FFF"/>
<rect x="30" y="9" width="1" height="1" fill="#FFF"/>
<rect x="30" y="12" width="1" height="1" fill="#FFF"/>
<rect x="30" y="15" width="1" height="1" fill="#FFF"/>
<rect x="30" y="18" width="1" height="1" fill="#FFF"/>
<rect x="30" y="21" width="1" height="1" fill="#FFF"/>
<rect x="30" y="24" width="1" height="1" fill="#FFF"/>
<rect x="30" y="27" width="1" height="1" fill="#FFF"/>
<rect x="30" y="30" width="1" height="1" fill="#FFF"/>
<rect x="30" y="33" width="1" height="1" fill="#FFF"/>
<rect x="30" y="36" width="1" height="1" fill="#FFF"/>
<rect x="30" y="39" width="1" height="1" fill="#FFF"/>
<rect x="30" y="42" width="1" height="1" fill="#FFF"/>
<rect x="30" y="45" width="1" height="1" fill="#FFF"/>
<rect x="30" y="48" width="1" height="1" fill="#FFF"/>
<rect x="30" y="51" width="1" height="1" fill="#FFF"/>
<rect x="30" y="54" width="1" height="1" fill="#FFF"/>
<rect x="30" y="57" width="1" height="1" fill="#FFF"/>
<rect x="30" y="60" width="1" height="1" fill="#FFF"/>
<rect x="30" y="63" width="1" height="1" fill="#FFF"/>
</svg> 